<?xml version="1.0" encoding="UTF-8" standalone="no"?>
<!-- Created with Inkscape (http://www.inkscape.org/) -->

<svg
   inkscape:export-ydpi="96"
   inkscape:export-xdpi="96"
   inkscape:export-filename="poles_front.png"
   sodipodi:docname="poles_front.svg"
   inkscape:version="1.3.2 (091e20e, 2023-11-25, custom)"
   xml:space="preserve"
   id="svg5"
   version="1.1"
   viewBox="0 0 209.83169 101.4047"
   height="383.26187"
   width="793.0647"
   xmlns:inkscape="http://www.inkscape.org/namespaces/inkscape"
   xmlns:sodipodi="http://sodipodi.sourceforge.net/DTD/sodipodi-0.dtd"
   xmlns:xlink="http://www.w3.org/1999/xlink"
   xmlns="http://www.w3.org/2000/svg"
   xmlns:svg="http://www.w3.org/2000/svg"><sodipodi:namedview
     id="namedview7"
     pagecolor="#ffffff"
     bordercolor="#000000"
     borderopacity="0.25"
     inkscape:showpageshadow="2"
     inkscape:pageopacity="0.0"
     inkscape:pagecheckerboard="0"
     inkscape:deskcolor="#d1d1d1"
     inkscape:document-units="mm"
     showgrid="true"
     inkscape:zoom="1.2478062"
     inkscape:cx="399.10043"
     inkscape:cy="203.15654"
     inkscape:window-width="1920"
     inkscape:window-height="1009"
     inkscape:window-x="-8"
     inkscape:window-y="-8"
     inkscape:window-maximized="1"
     inkscape:current-layer="layer1"><inkscape:grid
       type="xygrid"
       id="grid755"
       originx="0.81623753"
       originy="-44.137499"
       spacingy="1"
       spacingx="1"
       units="mm"
       visible="true" /></sodipodi:namedview><defs
     id="defs2"><linearGradient
       id="linearGradient3837"
       inkscape:swatch="solid"><stop
         style="stop-color:#000000;stop-opacity:1;"
         offset="0"
         id="stop3835" /></linearGradient><rect
       x="87.158791"
       y="1017.6436"
       width="96.625343"
       height="15.394648"
       id="rect3468" /><rect
       x="87.158791"
       y="1017.6436"
       width="36.289124"
       height="14.825816"
       id="rect3468-6" /><rect
       x="87.158791"
       y="1017.6436"
       width="35.333935"
       height="17.377497"
       id="rect3468-8" /><linearGradient
       inkscape:collect="always"
       xlink:href="#linearGradient3837"
       id="linearGradient521"
       gradientUnits="userSpaceOnUse"
       x1="88.00296"
       y1="1024.9302"
       x2="133.37595"
       y2="1024.9302" /></defs><g
     inkscape:label="BasePoles"
     inkscape:groupmode="layer"
     id="layer1"
     transform="translate(-16.970562,-202.71951)"
     style="display:inline"><g
       id="g1"><path
         style="fill:#000000;stroke-width:0.306307"
         d="m 39.752193,303.94673 -0.382885,-0.15449 v -43.57848 -43.57849 l -3.599104,-3.49071 -3.599116,-3.49071 -7.504523,-0.15316 -7.504523,-0.15315 -0.09574,-0.83059 -0.09574,-0.8306 2.852552,-0.0883 2.852552,-0.0883 0.100141,-0.70605 c 0.05511,-0.38833 -0.06796,-0.90855 -0.273379,-1.15606 -0.50567,-0.60928 -0.23184,-0.80354 0.967742,-0.68652 l 1.00649,0.0982 -0.538954,0.53553 c -0.296429,0.29454 -0.494881,0.84589 -0.441013,1.22522 l 0.09794,0.6897 h 3.981989 3.982001 l 0.10014,-0.70604 c 0.05511,-0.38833 -0.06796,-0.90856 -0.273378,-1.15606 -0.50567,-0.60929 -0.231852,-0.80355 0.96773,-0.68653 l 1.006501,0.0982 -0.538966,0.53553 c -0.296428,0.29454 -0.49488,0.84589 -0.441001,1.22522 l 0.09794,0.68971 3.369371,-0.0125 3.369383,-0.0125 0.09389,-1.81472 c 0.203476,-3.93526 3.709571,-3.93359 4.040117,0.002 l 0.154355,1.83785 h 3.981989 3.982001 l 0.0969,-0.84234 c 0.05325,-0.46329 -0.05013,-0.84234 -0.229733,-0.84234 -0.179663,0 -0.326656,-0.20675 -0.326656,-0.45947 0,-0.32459 0.328601,-0.45945 1.119551,-0.45945 h 1.11955 l -0.531556,0.58735 c -0.292342,0.32305 -0.486001,0.90885 -0.430351,1.30181 l 0.101183,0.71445 4.05857,0.0543 4.058559,0.0543 v -0.8354 c 0,-0.45948 -0.163107,-0.99852 -0.362463,-1.19787 -0.516193,-0.5162 -0.160132,-0.73755 1.003758,-0.62401 l 1.006501,0.0982 -0.538954,0.53553 c -0.296428,0.29454 -0.494892,0.84589 -0.441013,1.22523 l 0.09794,0.6897 2.144158,0.15315 2.144146,0.15315 v 0.76577 0.76577 l -7.259473,0.15316 -7.259486,0.15315 -3.844153,3.80097 -3.844154,3.80096 v 43.07935 43.07934 l -0.367569,0.36757 c -0.360772,0.36077 -2.478199,0.46869 -3.231547,0.1647 z"
         id="path316"
         sodipodi:nodetypes="cccccccccccccsscssccccsscssccccsccccssscsscccssscsscccccccccccscc" /><path
         style="fill:#000000;stroke-width:0.306307"
         d="m 120.47258,303.94673 -0.38289,-0.15449 v -43.57848 -43.57849 l -3.5991,-3.49071 -3.59912,-3.49071 -7.50452,-0.15316 -7.50452,-0.15315 -0.09574,-0.83059 -0.09574,-0.8306 2.85255,-0.0883 2.85255,-0.0883 0.10014,-0.70605 c 0.0551,-0.38833 -0.0679,-0.90855 -0.27338,-1.15606 -0.50567,-0.60928 -0.23184,-0.80354 0.96775,-0.68652 l 1.00648,0.0982 -0.53895,0.53553 c -0.29643,0.29454 -0.49488,0.84589 -0.44101,1.22522 l 0.0979,0.6897 h 3.98199 3.982 l 0.10014,-0.70604 c 0.0551,-0.38833 -0.068,-0.90856 -0.27338,-1.15606 -0.50567,-0.60929 -0.23185,-0.80355 0.96773,-0.68653 l 1.0065,0.0982 -0.53897,0.53553 c -0.29643,0.29454 -0.49488,0.84589 -0.441,1.22522 l 0.0979,0.68971 3.36937,-0.0125 3.36939,-0.0125 0.0939,-1.81472 c 0.20348,-3.93526 3.70958,-3.93359 4.04012,0.002 l 0.15436,1.83785 h 3.98199 3.982 l 0.0969,-0.84234 c 0.0532,-0.46329 -0.0501,-0.84234 -0.22974,-0.84234 -0.17966,0 -0.32665,-0.20675 -0.32665,-0.45947 0,-0.32459 0.3286,-0.45945 1.11955,-0.45945 h 1.11955 l -0.53156,0.58735 c -0.29234,0.32305 -0.486,0.90885 -0.43035,1.30181 l 0.10118,0.71445 4.05857,0.0543 4.05856,0.0543 v -0.8354 c 0,-0.45948 -0.1631,-0.99852 -0.36246,-1.19787 -0.51619,-0.5162 -0.16013,-0.73755 1.00376,-0.62401 l 1.0065,0.0982 -0.53896,0.53553 c -0.29642,0.29454 -0.49489,0.84589 -0.44101,1.22523 l 0.0979,0.6897 2.14416,0.15315 2.14415,0.15315 v 0.76577 0.76577 l -7.25948,0.15316 -7.25948,0.15315 -3.84416,3.80097 -3.84415,3.80096 v 43.07935 43.07934 l -0.36757,0.36757 c -0.36077,0.36077 -2.4782,0.46869 -3.23154,0.1647 z"
         id="path316-3"
         sodipodi:nodetypes="cccccccccccccsscssccccsscssccccsccccssscsscccssscsscccccccccccscc" /><path
         style="fill:#000000;stroke-width:0.306307"
         d="m 200.9957,303.94673 -0.38288,-0.15449 v -43.57848 -43.57849 l -3.59911,-3.49071 -3.59911,-3.49071 -7.50452,-0.15316 -7.50453,-0.15315 -0.0957,-0.83059 -0.0957,-0.8306 2.85255,-0.0883 2.85255,-0.0883 0.10014,-0.70605 c 0.0551,-0.38833 -0.0679,-0.90855 -0.27337,-1.15606 -0.50567,-0.60928 -0.23184,-0.80354 0.96774,-0.68652 l 1.00649,0.0982 -0.53896,0.53553 c -0.29643,0.29454 -0.49488,0.84589 -0.44101,1.22522 l 0.0979,0.6897 h 3.98199 3.982 l 0.10014,-0.70604 c 0.0551,-0.38833 -0.068,-0.90856 -0.27338,-1.15606 -0.50567,-0.60929 -0.23185,-0.80355 0.96773,-0.68653 l 1.0065,0.0982 -0.53896,0.53553 c -0.29643,0.29454 -0.49488,0.84589 -0.441,1.22522 l 0.0979,0.68971 3.36937,-0.0125 3.36938,-0.0125 0.0939,-1.81472 c 0.20348,-3.93526 3.70957,-3.93359 4.04012,0.002 l 0.15435,1.83785 h 3.98199 3.982 l 0.0969,-0.84234 c 0.0533,-0.46329 -0.0501,-0.84234 -0.22973,-0.84234 -0.17966,0 -0.32666,-0.20675 -0.32666,-0.45947 0,-0.32459 0.3286,-0.45945 1.11955,-0.45945 h 1.11955 l -0.53155,0.58735 c -0.29234,0.32305 -0.486,0.90885 -0.43035,1.30181 l 0.10118,0.71445 4.05857,0.0543 4.05856,0.0543 v -0.8354 c 0,-0.45948 -0.16311,-0.99852 -0.36246,-1.19787 -0.5162,-0.5162 -0.16014,-0.73755 1.00375,-0.62401 l 1.0065,0.0982 -0.53895,0.53553 c -0.29643,0.29454 -0.49489,0.84589 -0.44101,1.22523 l 0.0979,0.6897 2.14416,0.15315 2.14414,0.15315 v 0.76577 0.76577 l -7.25947,0.15316 -7.25949,0.15315 -3.84415,3.80097 -3.84415,3.80096 v 43.07935 43.07934 l -0.36757,0.36757 c -0.36077,0.36077 -2.4782,0.46869 -3.23155,0.1647 z"
         id="path316-2"
         sodipodi:nodetypes="cccccccccccccsscssccccsscssccccsccccssscsscccssscsscccccccccccscc" /></g></g><g
     inkscape:groupmode="layer"
     id="layer2"
     inkscape:label="Fonts"><text
       xml:space="preserve"
       style="font-size:6.15098px;fill:#000000;stroke-width:0.512581"
       x="32.858601"
       y="52.216034"
       id="text2"><tspan
         sodipodi:role="line"
         id="tspan2"
         style="font-style:normal;font-variant:normal;font-weight:normal;font-stretch:normal;font-family:'Source Code Pro';-inkscape-font-specification:'Source Code Pro';stroke-width:0.512581"
         x="32.858601"
         y="52.216034">wep#1</tspan></text><text
       xml:space="preserve"
       style="font-size:6.15098px;fill:#000000;stroke-width:0.512581"
       x="109.59063"
       y="53.037189"
       id="text2-9"><tspan
         sodipodi:role="line"
         id="tspan2-95"
         style="font-style:normal;font-variant:normal;font-weight:normal;font-stretch:normal;font-family:'Source Code Pro';-inkscape-font-specification:'Source Code Pro';stroke-width:0.512581"
         x="109.59063"
         y="53.037189">ref</tspan></text><text
       xml:space="preserve"
       style="font-size:6.15098px;fill:#000000;stroke-width:0.512581"
       x="157.96198"
       y="52.216034"
       id="text2-1"><tspan
         sodipodi:role="line"
         id="tspan2-7"
         style="font-style:normal;font-variant:normal;font-weight:normal;font-stretch:normal;font-family:'Source Code Pro';-inkscape-font-specification:'Source Code Pro';stroke-width:0.512581"
         x="157.96198"
         y="52.216034">wep#2</tspan></text></g></svg>
